<svg width="400" height="300" viewBox="0 0 400 300" fill="none" xmlns="http://www.w3.org/2000/svg">
  <!-- Background -->
  <rect width="400" height="300" fill="#f8fafc"/>
  
  <!-- Border -->
  <rect x="1" y="1" width="398" height="298" stroke="#e5e7eb" stroke-width="2" fill="none"/>
  
  <!-- Image Icon -->
  <g transform="translate(150, 100)">
    <!-- Mountain/Image icon -->
    <path d="M20 80 L40 40 L60 60 L80 20 L100 80 Z" fill="#cbd5e1" stroke="#94a3b8" stroke-width="2"/>
    
    <!-- Sun -->
    <circle cx="75" cy="35" r="8" fill="#fbbf24"/>
    
    <!-- Cloud -->
    <path d="M25 30 Q20 25 25 25 Q30 20 35 25 Q40 20 45 25 Q50 25 45 30 Q50 35 45 35 L25 35 Q20 35 25 30 Z" fill="#e5e7eb"/>
  </g>
  
  <!-- Text -->
  <text x="200" y="180" text-anchor="middle" fill="#6b7280" font-family="Arial, sans-serif" font-size="16" font-weight="500">
    صورة افتراضية
  </text>
  
  <text x="200" y="200" text-anchor="middle" fill="#9ca3af" font-family="Arial, sans-serif" font-size="12">
    Placeholder Image
  </text>
  
  <!-- Decorative elements -->
  <circle cx="50" cy="50" r="3" fill="#e5e7eb"/>
  <circle cx="350" cy="50" r="3" fill="#e5e7eb"/>
  <circle cx="50" cy="250" r="3" fill="#e5e7eb"/>
  <circle cx="350" cy="250" r="3" fill="#e5e7eb"/>
</svg>
